<svg id="Layer_2" data-name="Layer 2" xmlns="http://www.w3.org/2000/svg" viewBox="0 0 467.68 602.55"><defs><style>.cls-1{fill:#0077b6;}</style></defs><path class="cls-1" d="M316.29,47.14S144,237.43,110.57,317.14c-6.7,16-14.72,30.36-19.18,47.46a226.36,226.36,0,0,0,.4,114.4,222,222,0,0,0,24.83,57.91c18.63,30.65,44.3,56.8,73.76,77.26-6.26-4.35-11.49-16.36-15.17-22.91A197.06,197.06,0,0,1,163,565.38a204.12,204.12,0,0,1-12.88-55.67,197.46,197.46,0,0,1,3.22-57c1.85-8.93,3.05-15.13,3.18-24,.56-40.27,15.54-80.17,36.33-114.18,0,0,95.14-127.28,123.43-150.43l47.57,54S229,285.67,179.57,420.94c0,0-65.58,197.06,118.07,226.2,0,0,115.07,27.43,209.36-97.71,0,0-129.67,101.17-240-12-56.15-57.6-25-132.2,19.35-185.91a453.37,453.37,0,0,1,44.15-46.2c13-11.82,28.19-27.91,44.41-34.82,28.56-12.17,66.45-17.93,96.72-9.17,9.49,2.74,18.42,7.89,24.33,15.95-23.52-39.68-49.88-77.82-77.8-114.51C387,121.88,353.47,82.65,316.29,47.14Z" transform="translate(-84.24 -47.14)"/><path class="cls-1" d="M551.88,420.22c-.66,31.95-9.74,64.09-28.75,89.15-19.5,25.71-47.27,44.57-77.93,54.35a170.62,170.62,0,0,1-51.77,8c-48.16,0-91.29-19.84-120.28-51.13a130.65,130.65,0,0,0,103.62,12.08c55-16.75,95.09-68.91,95.09-130.66a132.64,132.64,0,0,0-19.39-68.78c-13.4-22.07-31.9-36.54-51.77-52.16,29.47-14.63,67.19-7.18,93.24,11.07,26.31,18.43,43.87,47.5,52,78.22A180.5,180.5,0,0,1,551.88,420.22Z" transform="translate(-84.24 -47.14)"/><path class="cls-1" d="M402,280.42c-.57.22-1.13.45-1.7.69-.51-.28-1-.55-1.54-.81C399.83,280.32,400.91,280.37,402,280.42Z" transform="translate(-84.24 -47.14)"/><path class="cls-1" d="M315,371.14c-5.07,16.32-13.82,31.12-23.23,45.27-7.26,10.91-12.79,19.66-13.41,33.38,0,0-.22,36,34.93,40.92,0,0,37.92-1.28,41.14-34.92,2.39-25-17.87-44.21-30.25-63.6C321.43,387.88,313.14,377.12,315,371.14Z" transform="translate(-84.24 -47.14)"/></svg>